<svg xmlns="http://www.w3.org/2000/svg" version="1.1" xmlns:xlink="http://www.w3.org/1999/xlink" width="512" height="512" x="0" y="0" viewBox="0 0 682.667 682.667" style="enable-background:new 0 0 512 512" xml:space="preserve" class=""><g><defs><clipPath id="a" clipPathUnits="userSpaceOnUse"><path d="M0 512h512V0H0Z" fill="#000000" opacity="1" data-original="#000000"></path></clipPath></defs><g clip-path="url(#a)" transform="matrix(1.33333 0 0 -1.33333 0 682.667)"><path d="M0 0c14.286 0 25.851-11.594 25.851-25.852 0-14.286-11.565-25.851-25.851-25.851s-25.851 11.565-25.851 25.851C-25.851-11.594-14.286 0 0 0m56.096-79 82.909-73.926 62.274 55.53 105.444-94.024v138.923c-13.152-5.187-27.466-8.05-42.461-8.05-60.177 0-109.639 45.949-115.195 104.682H-69.984V-191.42Z" style="fill-opacity:1;fill-rule:evenodd;stroke:none" transform="translate(121.998 331.103)" fill="#66e0f7" data-original="#66e0f7" class=""></path><path d="M0 0c14.286 0 25.851 11.565 25.851 25.852 0 14.257-11.565 25.851-25.851 25.851s-25.851-11.594-25.851-25.851C-25.851 11.565-14.286 0 0 0" style="fill-opacity:1;fill-rule:evenodd;stroke:none" transform="translate(121.998 279.4)" fill="#ebff00" data-original="#ffcd69" class="" opacity="1"></path><path d="M0 0h268.656l-59.667 53.205-82.909 73.926L0 14.711Z" style="fill-opacity:1;fill-rule:evenodd;stroke:none" transform="translate(52.014 124.971)" fill="#a0e6a5" data-original="#a0e6a5" class=""></path><path d="M0 0h108.051v14.711L2.607 108.735l-62.274-55.53Z" style="fill-opacity:1;fill-rule:evenodd;stroke:none" transform="translate(320.67 124.971)" fill="#a0e6a5" data-original="#a0e6a5" class=""></path><path d="m0 0 122.593 71.318h221.886c13.123 0 23.922 10.8 23.922 23.924v200.236c-11.592-12.387-25.907-22.223-41.979-28.544V113.299H-50.285v250.266h219.052q-.51 5.442-.51 11.055c0 10.714 1.445 21.089 4.166 30.953H-68.369c-13.152 0-23.923-10.771-23.923-23.924V95.242c0-13.152 10.771-23.924 23.923-23.924h65.534V0Z" style="fill-opacity:1;fill-rule:evenodd;stroke:none" transform="translate(102.299 11.672)" fill="#faf7f5" data-original="#faf7f5" class=""></path><path d="M0 0c5.556-58.733 55.018-104.682 115.194-104.682 14.995 0 29.31 2.863 42.461 8.051 16.073 6.321 30.387 16.157 41.98 28.544 19.417 20.692 31.293 48.528 31.293 79.142 0 63.891-51.815 115.708-115.734 115.708-53.174 0-97.989-35.886-111.538-84.755A116.3 116.3 0 0 1-.51 11.055Q-.51 5.442 0 0" style="fill-opacity:1;fill-rule:evenodd;stroke:none" transform="translate(271.065 375.237)" fill="#ebff00" data-original="#ffcd69" class="" opacity="1"></path><path d="m0 0 126.08 112.42L268.656-14.711" style="stroke-width:20;stroke-linecap:round;stroke-linejoin:round;stroke-miterlimit:10;stroke-dasharray:none;stroke-opacity:1" transform="translate(52.014 139.683)" fill="none" stroke="#000000" stroke-width="20" stroke-linecap="round" stroke-linejoin="round" stroke-miterlimit="10" stroke-dasharray="none" stroke-opacity="" data-original="#000000" class=""></path><path d="m0 0 62.274 55.53 105.444-94.024" style="stroke-width:20;stroke-linecap:round;stroke-linejoin:round;stroke-miterlimit:10;stroke-dasharray:none;stroke-opacity:1" transform="translate(261.003 178.176)" fill="none" stroke="#000000" stroke-width="20" stroke-linecap="round" stroke-linejoin="round" stroke-miterlimit="10" stroke-dasharray="none" stroke-opacity="" data-original="#000000" class=""></path><path d="M0 0c63.749 0 115.733 51.986 115.733 115.736 0 63.722-51.984 115.708-115.733 115.708-63.72 0-115.704-51.986-115.704-115.708C-115.704 51.986-63.72 0 0 0" style="stroke-width:20;stroke-linecap:round;stroke-linejoin:round;stroke-miterlimit:10;stroke-dasharray:none;stroke-opacity:1" transform="translate(386.26 270.556)" fill="none" stroke="#000000" stroke-width="20" stroke-linecap="round" stroke-linejoin="round" stroke-miterlimit="10" stroke-dasharray="none" stroke-opacity="" data-original="#000000" class=""></path><path d="M0 0v98.304c0 13.152 10.771 23.924 23.923 23.924h240.82m195.95-110.067v-200.265c0-13.124-10.799-23.923-23.922-23.923H214.885L89.457-285.018v72.991H23.923C10.771-212.027 0-201.256 0-188.104V-89.8" style="stroke-width:20;stroke-linecap:round;stroke-linejoin:round;stroke-miterlimit:10;stroke-dasharray:none;stroke-opacity:1" transform="translate(10.007 295.018)" fill="none" stroke="#000000" stroke-width="20" stroke-linecap="round" stroke-linejoin="round" stroke-miterlimit="10" stroke-dasharray="none" stroke-opacity="" data-original="#000000" class=""></path><path d="M0 0v-153.635h-376.707V96.631h219.052" style="stroke-width:20;stroke-linecap:round;stroke-linejoin:round;stroke-miterlimit:10;stroke-dasharray:none;stroke-opacity:1" transform="translate(428.72 278.606)" fill="none" stroke="#000000" stroke-width="20" stroke-linecap="round" stroke-linejoin="round" stroke-miterlimit="10" stroke-dasharray="none" stroke-opacity="" data-original="#000000" class=""></path><path d="M0 0v-83.11" style="stroke-width:20;stroke-linecap:round;stroke-linejoin:round;stroke-miterlimit:10;stroke-dasharray:none;stroke-opacity:1" transform="translate(386.26 455.71)" fill="none" stroke="#000000" stroke-width="20" stroke-linecap="round" stroke-linejoin="round" stroke-miterlimit="10" stroke-dasharray="none" stroke-opacity="" data-original="#000000" class=""></path><path d="m0 0 31.208 31.237" style="stroke-width:20;stroke-linecap:round;stroke-linejoin:round;stroke-miterlimit:10;stroke-dasharray:none;stroke-opacity:1" transform="translate(355.052 424.474)" fill="none" stroke="#000000" stroke-width="20" stroke-linecap="round" stroke-linejoin="round" stroke-miterlimit="10" stroke-dasharray="none" stroke-opacity="" data-original="#000000" class=""></path><path d="m0 0-31.236 31.237" style="stroke-width:20;stroke-linecap:round;stroke-linejoin:round;stroke-miterlimit:10;stroke-dasharray:none;stroke-opacity:1" transform="translate(417.496 424.474)" fill="none" stroke="#000000" stroke-width="20" stroke-linecap="round" stroke-linejoin="round" stroke-miterlimit="10" stroke-dasharray="none" stroke-opacity="" data-original="#000000" class=""></path><path d="M0 0v-27.07h-115.875V0" style="stroke-width:20;stroke-linecap:round;stroke-linejoin:round;stroke-miterlimit:10;stroke-dasharray:none;stroke-opacity:1" transform="translate(444.197 360.922)" fill="none" stroke="#000000" stroke-width="20" stroke-linecap="round" stroke-linejoin="round" stroke-miterlimit="10" stroke-dasharray="none" stroke-opacity="" data-original="#000000" class=""></path><path d="M0 0c14.229 0 25.851 11.594 25.851 25.852 0 14.229-11.622 25.851-25.851 25.851s-25.851-11.622-25.851-25.851C-25.851 11.594-14.229 0 0 0" style="stroke-width:20;stroke-linecap:round;stroke-linejoin:round;stroke-miterlimit:10;stroke-dasharray:none;stroke-opacity:1" transform="translate(121.998 279.4)" fill="none" stroke="#000000" stroke-width="20" stroke-linecap="round" stroke-linejoin="round" stroke-miterlimit="10" stroke-dasharray="none" stroke-opacity="" data-original="#000000" class=""></path><path d="M0 0v-.028" style="stroke-width:20;stroke-linecap:round;stroke-linejoin:round;stroke-miterlimit:10;stroke-dasharray:none;stroke-opacity:1" transform="translate(10.007 250.147)" fill="none" stroke="#000000" stroke-width="20" stroke-linecap="round" stroke-linejoin="round" stroke-miterlimit="10" stroke-dasharray="none" stroke-opacity="" data-original="#000000" class=""></path></g></g></svg>